<?xml version="1.0" encoding="UTF-8"?>
<svg xmlns="http://www.w3.org/2000/svg" xmlns:xlink="http://www.w3.org/1999/xlink" viewBox="0 0 153.39 163.96">
  <defs>
    <style>
      .cls-1 {
        fill: url(#linear-gradient-2);
      }

      .cls-2 {
        fill: #fff;
      }

      .cls-3 {
        fill: #180d0a;
        mix-blend-mode: screen;
      }

      .cls-4 {
        isolation: isolate;
      }

      .cls-5 {
        fill: #d91e47;
      }

      .cls-6 {
        fill: url(#linear-gradient);
      }

      .cls-7 {
        fill: #eef8fb;
      }

      .cls-8 {
        fill: #231f20;
      }
    </style>
    <linearGradient id="linear-gradient" x1="76.42" y1="126.61" x2="77.34" y2="85.27" gradientUnits="userSpaceOnUse">
      <stop offset=".42" stop-color="#101215"/>
      <stop offset="1" stop-color="#111114"/>
    </linearGradient>
    <linearGradient id="linear-gradient-2" x1="76.07" y1="142.66" x2="105.99" y2="112.74" gradientUnits="userSpaceOnUse">
      <stop offset=".22" stop-color="#ad123c"/>
      <stop offset=".41" stop-color="#ad183c"/>
      <stop offset=".74" stop-color="#ad1e3d"/>
    </linearGradient>
  </defs>
  <g class="cls-4">
    <g id="Layer_2" data-name="Layer 2">
      <g id="Layer_3" data-name="Layer 3">
        <g>
          <rect class="cls-5" x="74.25" y="8.42" width="4.9" height="32.15"/>
          <rect class="cls-5" x="55.26" y="37.2" width="42.87" height="21.13" rx="4.52" ry="4.52"/>
          <path class="cls-5" d="m62.92,47.3h27.56c34.73,0,62.92,28.19,62.92,62.92v18.37c0,19.52-15.85,35.36-35.36,35.36H35.36C15.85,163.96,0,148.11,0,128.59v-18.37C0,75.5,28.19,47.3,62.92,47.3Z"/>
          <path class="cls-6" d="m129.27,125.24h0c-2.01.99-4.26,1.51-6.54,1.51H30.67c-2.29,0-4.54-.52-6.54-1.51h0c-4.93-2.44-7.71-7.36-7.02-12.41l.05-.37c2.36-17.1,17.85-30.25,36.83-31.23,8.03-.42,16.46-.63,25.26-.58,6.89.04,13.55.24,19.96.57,19.06.98,34.66,14.08,37.03,31.24.02.12.03.25.05.37.7,5.05-2.09,9.97-7.02,12.41Z"/>
          <g>
            <circle class="cls-3" cx="99.33" cy="105.63" r="17.36"/>
            <circle class="cls-7" cx="99.33" cy="105.63" r="12.46"/>
            <circle class="cls-8" cx="99.33" cy="105.63" r="10.46"/>
            <path class="cls-7" d="m106.03,102.92c0,2.14-1.74,3.88-3.88,3.88s-3.88-1.74-3.88-3.88,1.74-3.88,3.88-3.88,3.88,1.74,3.88,3.88Z"/>
            <circle class="cls-7" cx="97.78" cy="113.65" r="1.55"/>
            <path class="cls-7" d="m93.95,111.33c0,.43-.35.77-.77.77s-.77-.35-.77-.77.35-.77.77-.77.77.35.77.77Z"/>
          </g>
          <g>
            <circle class="cls-3" cx="52.44" cy="105.63" r="17.36"/>
            <circle class="cls-7" cx="52.44" cy="105.63" r="12.46"/>
            <circle class="cls-8" cx="52.44" cy="105.63" r="10.46"/>
            <path class="cls-7" d="m59.14,102.92c0,2.14-1.74,3.88-3.88,3.88s-3.88-1.74-3.88-3.88,1.74-3.88,3.88-3.88,3.88,1.74,3.88,3.88Z"/>
            <circle class="cls-7" cx="50.89" cy="113.65" r="1.55"/>
            <path class="cls-7" d="m47.05,111.33c0,.43-.35.77-.77.77s-.77-.35-.77-.77.35-.77.77-.77.77.35.77.77Z"/>
          </g>
          <path class="cls-5" d="m82.97,6.28c0,3.47-2.81,6.28-6.28,6.28s-6.28-2.81-6.28-6.28,2.81-6.28,6.28-6.28,6.28,2.81,6.28,6.28Z"/>
          <path class="cls-2" d="m81.06,3.83c0,1.06-.86,1.91-1.91,1.91s-1.91-.86-1.91-1.91.86-1.91,1.91-1.91,1.91.86,1.91,1.91Z"/>
          <path class="cls-2" d="m130.74,67.43c.08,2.93-2.31,6.43-5.05,6.73-2.57.28-4.62-2.34-6.73-5.05-2.08-2.67-6.64-9.52-4.83-11.46,2.39-2.56,16.42,2.86,16.61,9.77Z"/>
          <circle class="cls-2" cx="107.28" cy="54.08" r="2.18"/>
          <path class="cls-2" d="m130.43,108.08c-.7.49-5.58-9.45-18.68-18.06-4.6-3.03-9.15-5.19-8.88-5.82.27-.64,5.39.55,9.49,2.45,13.06,6.06,18.9,20.85,18.06,21.43Z"/>
          <path class="cls-2" d="m96.89,43.45c-.16.02-.26-.89-1.02-2.31,0,0-.36-.66-.77-1.22-1.32-1.81-5.77-1.77-6.12-1.77-6.94.06-11.41-.38-11.41-.34,0,.04,3.26-.03,5.64-.08,6.73-.14,10.74-.5,12.46,1.3.71.75,1.07,1.72,1.07,1.72.49,1.32.32,2.67.14,2.69Z"/>
          <path class="cls-7" d="m95.45,134.21c-.17,1.66-1.55,2.94-3.22,3.1l-22.99,2.22c-1.66.16-3.27-.83-3.75-2.43-.22-.71-.38-1.44-.49-2.2-.03-.21.02-.42.15-.59.13-.17.32-.27.53-.29l29.01-2.8c.21-.02.41.05.57.18.16.14.25.33.26.54.03.76.01,1.52-.06,2.26Z"/>
          <path class="cls-1" d="m95.45,134.21c-.73,7.13-6.4,12.99-13.81,13.7-7.3.71-13.9-3.82-16.06-10.53.58,1.43,2.09,2.31,3.66,2.15l23-2.21c1.66-.17,3.04-1.44,3.21-3.1Z"/>
        </g>
      </g>
    </g>
  </g>
</svg>